<svg xmlns="http://www.w3.org/2000/svg" viewBox="0 0 620 840" width="620" height="840">
  <defs>
    <linearGradient id="bg3" x1="0" y1="0" x2="1" y2="1">
      <stop offset="0" stop-color="#0A3E63"/>
      <stop offset="0.55" stop-color="#1E5A8A"/>
      <stop offset="1" stop-color="#2B7AB8"/>
    </linearGradient>
  </defs>
  <rect width="620" height="840" fill="url(#bg3)"/>
  <rect x="26" y="26" width="568" height="788" fill="none" stroke="#7FD8CB" stroke-width="1.5" opacity="0.55"/>
  <rect x="34" y="34" width="552" height="772" fill="none" stroke="#7FD8CB" stroke-width="0.8" opacity="0.3"/>

  <text x="56" y="88" font-family="Menlo,monospace" font-size="15" fill="#7FD8CB" letter-spacing="4" font-weight="700">XING HAOZHE · BOOKS</text>
  <line x1="56" y1="106" x2="564" y2="106" stroke="#7FD8CB" stroke-width="1" opacity="0.4"/>

  <!-- 双塔推荐结构装饰 -->
  <g>
    <rect x="120" y="180" width="110" height="180" rx="10" fill="none" stroke="#7FD8CB" stroke-width="2.5"/>
    <circle cx="145" cy="215" r="8" fill="#7FD8CB" opacity="0.85"/>
    <circle cx="175" cy="215" r="8" fill="#7FD8CB" opacity="0.6"/>
    <circle cx="205" cy="215" r="8" fill="#7FD8CB" opacity="0.4"/>
    <circle cx="145" cy="255" r="8" fill="#7FD8CB" opacity="0.6"/>
    <circle cx="175" cy="255" r="8" fill="#7FD8CB" opacity="0.85"/>
    <circle cx="205" cy="255" r="8" fill="#7FD8CB" opacity="0.6"/>
    <circle cx="175" cy="320" r="10" fill="#7FD8CB"/>
    <text x="175" y="390" text-anchor="middle" font-family="Menlo,monospace" font-size="13" fill="#A9E6DD">USER TOWER</text>

    <rect x="390" y="180" width="110" height="180" rx="10" fill="none" stroke="#7FD8CB" stroke-width="2.5"/>
    <circle cx="415" cy="215" r="8" fill="#7FD8CB" opacity="0.85"/>
    <circle cx="445" cy="215" r="8" fill="#7FD8CB" opacity="0.6"/>
    <circle cx="475" cy="215" r="8" fill="#7FD8CB" opacity="0.4"/>
    <circle cx="415" cy="255" r="8" fill="#7FD8CB" opacity="0.6"/>
    <circle cx="445" cy="255" r="8" fill="#7FD8CB" opacity="0.85"/>
    <circle cx="475" cy="255" r="8" fill="#7FD8CB" opacity="0.6"/>
    <circle cx="445" cy="320" r="10" fill="#7FD8CB"/>
    <text x="445" y="390" text-anchor="middle" font-family="Menlo,monospace" font-size="13" fill="#A9E6DD">ITEM TOWER</text>

    <path d="M185 320 C 260 380 360 380 435 320" fill="none" stroke="#7FD8CB" stroke-width="2" stroke-dasharray="6 5"/>
    <circle cx="310" cy="368" r="6" fill="#F0C36A"/>
  </g>

  <text x="310" y="470" text-anchor="middle" font-family="Songti SC,STSong,serif" font-size="48" fill="#FFFFFF" font-weight="900" letter-spacing="3">推荐系统</text>
  <text x="310" y="520" text-anchor="middle" font-family="Georgia,serif" font-size="28" fill="#CFE9F5" font-style="italic">Recommender Systems</text>

  <text x="310" y="566" text-anchor="middle" font-family="Menlo,monospace" font-size="15" fill="#7FD8CB" letter-spacing="2">&amp; COMPUTATIONAL ADVERTISING KB</text>

  <text x="310" y="742" text-anchor="middle" font-family="Menlo,monospace" font-size="14" fill="#A9C6D8" letter-spacing="2">12 PARTS · 69 ARTICLES · EN/中文 BILINGUAL</text>
  <text x="310" y="784" text-anchor="middle" font-family="Songti SC,STSong,serif" font-size="21" fill="#FFFFFF" letter-spacing="6">邢 浩 哲 著</text>
</svg>
